<?xml version="1.0" standalone="no"?>
<!DOCTYPE svg PUBLIC "-//W3C//DTD SVG 20010904//EN"
 "http://www.w3.org/TR/2001/REC-SVG-20010904/DTD/svg10.dtd">
<svg version="1.0" xmlns="http://www.w3.org/2000/svg"
 width="376.000000pt" height="411.000000pt" viewBox="0 0 376.000000 411.000000"
 preserveAspectRatio="xMidYMid meet">
<metadata>
Created by potrace 1.16, written by Peter Selinger 2001-2019
</metadata>
<g transform="translate(0.000000,411.000000) scale(0.100000,-0.100000)"
fill="Maroon" stroke="none">
<path d="M1812 4080 c-11 -19 -14 -19 -36 -5 -23 15 -25 15 -40 -7 -9 -12 -16
-31 -16 -41 0 -16 -5 -18 -32 -12 -18 4 -37 11 -42 16 -6 5 -14 9 -18 9 -14 0
-9 -63 7 -94 8 -15 15 -31 15 -34 0 -3 -34 -2 -75 1 -41 4 -75 3 -75 -2 0 -4
18 -29 41 -54 22 -26 38 -51 35 -56 -4 -5 -20 -12 -36 -16 -17 -4 -30 -10 -30
-15 0 -9 73 -40 96 -40 9 0 14 -3 12 -7 -19 -38 -38 -86 -35 -89 7 -7 108 15
143 32 56 27 61 7 17 -67 -36 -59 -46 -67 -122 -106 -92 -47 -126 -80 -141
-133 -28 -101 4 -194 102 -296 50 -52 59 -67 48 -74 -8 -6 -21 -10 -28 -10 -7
0 -35 -22 -63 -50 -27 -27 -51 -50 -53 -50 -2 0 -6 9 -9 20 -8 32 -73 27 -130
-10 -70 -47 -92 -96 -88 -198 2 -36 44 -72 86 -72 24 0 35 4 35 15 0 8 4 15 9
15 4 0 11 -35 15 -77 l6 -78 -57 -53 c-32 -29 -64 -51 -73 -50 -11 2 -18 29
-27 103 -16 130 -22 143 -69 147 -70 6 -72 68 -3 78 29 4 35 10 37 34 2 16 -1
33 -6 38 -19 19 -82 -2 -124 -40 -54 -49 -78 -102 -78 -177 0 -100 49 -155
124 -141 32 6 36 10 36 38 0 52 18 20 29 -52 6 -36 11 -71 11 -79 0 -26 -15 0
-27 47 l-12 47 4 -70 c5 -70 5 -70 -34 -115 -22 -25 -41 -43 -44 -40 -2 3 -18
50 -35 105 -18 55 -36 107 -41 115 -6 9 -27 14 -58 15 -45 0 -48 2 -51 27 -3
23 1 28 25 34 38 9 53 23 53 48 0 80 -104 50 -165 -48 -26 -44 -30 -58 -30
-127 0 -71 -1 -76 -16 -63 -23 21 -43 17 -79 -12 -78 -66 -100 -199 -50 -300
l25 -51 -28 0 c-41 0 -91 -53 -112 -120 -23 -71 -16 -152 18 -219 24 -48 82
-114 99 -114 4 0 8 -4 8 -10 0 -5 -6 -7 -14 -4 -22 8 -63 -24 -75 -58 -16 -44
-14 -137 4 -189 18 -53 83 -131 137 -165 21 -14 62 -30 90 -38 49 -12 51 -14
30 -25 -17 -9 -22 -21 -22 -49 0 -110 61 -224 153 -283 151 -98 327 -63 327
64 l0 44 46 7 c80 11 160 7 200 -10 211 -89 489 -89 696 0 39 17 122 21 203 9
47 -6 47 -6 42 -39 -11 -66 64 -134 148 -134 41 0 117 20 155 40 36 19 101 82
126 121 25 40 54 140 54 186 0 18 -8 33 -22 42 -22 13 -21 14 23 25 177 45
294 243 233 395 -12 30 -25 44 -48 52 l-33 12 38 34 c21 19 49 57 63 86 65
129 7 340 -93 340 l-29 0 23 46 c51 104 37 215 -36 291 -44 45 -65 49 -98 19
l-23 -22 7 23 c16 50 6 134 -22 190 -42 81 -120 125 -153 86 -21 -27 -8 -60
33 -79 20 -9 37 -23 37 -30 -1 -28 -18 -39 -60 -35 -39 3 -44 0 -59 -27 -20
-38 -48 -119 -56 -167 -4 -21 -12 -38 -19 -38 -6 0 -28 21 -47 46 -35 45 -35
47 -27 107 12 84 16 93 30 79 32 -32 102 3 127 62 47 108 -48 286 -155 290
-67 2 -74 -65 -8 -72 36 -5 54 -19 54 -42 0 -25 -27 -44 -60 -42 -15 1 -32 -4
-38 -11 -12 -14 -33 -127 -31 -167 1 -14 5 -1 10 29 5 30 12 57 14 60 14 13
16 -15 5 -81 -16 -102 -15 -100 -42 -85 -53 28 -108 70 -112 86 -3 9 -2 47 2
85 l7 68 38 3 c55 3 70 24 75 97 3 55 0 68 -24 104 -38 58 -98 96 -149 92 -37
-3 -40 -5 -40 -33 0 -27 3 -30 40 -35 31 -4 41 -10 43 -26 3 -24 -13 -41 -47
-46 -34 -4 -43 -44 -36 -156 7 -108 4 -112 -71 -85 l-49 19 -9 71 c-11 87 -6
103 32 103 58 0 84 64 57 138 -22 59 -45 85 -98 108 -23 10 -43 18 -44 19 -1
0 26 30 60 66 84 88 112 146 111 229 -1 104 -32 146 -149 204 -39 18 -77 42
-86 52 -32 38 -70 116 -65 131 6 14 9 13 31 -1 25 -16 154 -51 162 -43 5 6
-18 58 -35 79 -12 14 -9 17 25 23 21 3 49 12 63 20 l24 13 -37 15 c-20 9 -37
19 -37 23 0 5 11 19 24 33 13 15 31 38 41 53 l17 28 -76 -6 c-42 -4 -76 -5
-76 -2 0 3 7 22 15 41 14 33 21 87 11 87 -2 0 -20 -7 -39 -15 -50 -21 -54 -20
-67 20 -15 45 -26 51 -51 29 -21 -19 -27 -16 -43 21 -3 6 -16 -3 -31 -20 l-26
-30 -24 28 c-29 32 -27 32 -43 7z m105 -90 c17 -17 36 -49 42 -72 11 -36 11
-44 -7 -67 -26 -36 -110 -43 -141 -12 -35 35 -22 102 31 159 28 29 40 28 75
-8z m28 -225 c34 -33 32 -67 -9 -109 -41 -44 -65 -45 -111 -5 -27 24 -35 39
-35 64 0 69 103 103 155 50z m-105 -161 l40 -27 34 27 c19 14 38 26 43 26 4 0
18 -23 30 -51 l22 -50 -26 -10 c-31 -12 -155 -14 -201 -4 -18 3 -32 12 -32 18
1 16 38 97 45 97 3 0 23 -12 45 -26z m356 -186 c28 -30 45 -64 37 -72 -11 -11
-713 -7 -713 4 0 25 32 70 63 89 43 26 53 26 60 1 6 -24 39 -27 57 -5 15 19
30 19 30 2 0 -8 9 -22 20 -32 18 -17 21 -17 46 0 25 16 27 16 45 -4 26 -28 53
-27 76 3 19 23 19 23 42 5 26 -22 55 -12 66 21 6 19 8 19 28 5 32 -22 56 -19
63 10 6 23 8 24 33 11 14 -8 36 -25 47 -38z m54 -138 c0 -16 -7 -47 -16 -69
-21 -54 -59 -67 -127 -45 -34 11 -62 14 -91 9 -45 -8 -60 -8 -201 -5 -120 3
-142 2 -182 -5 -64 -12 -88 -1 -107 45 -9 22 -16 54 -16 70 l0 30 370 0 370 0
0 -30z m-463 -163 c31 -8 48 -8 68 1 18 8 32 9 45 2 26 -14 62 -12 103 5 31
13 40 13 71 0 19 -8 49 -15 67 -15 l31 0 -32 -37 c-45 -50 -109 -103 -126
-103 -8 0 -14 7 -14 15 0 23 -27 29 -54 12 -21 -14 -25 -14 -44 6 l-22 21 -24
-23 c-23 -22 -26 -22 -41 -7 -22 22 -46 20 -52 -4 -10 -38 -48 -19 -120 59
l-53 56 38 6 c20 3 48 11 62 17 14 6 32 8 40 6 8 -3 34 -10 57 -17z m122 -156
c42 -59 35 -130 -14 -153 -22 -10 -29 -8 -51 13 -23 21 -25 30 -21 72 3 32 12
56 27 72 30 32 34 31 59 -4z m-427 -126 c-11 -58 29 -115 81 -115 l29 0 -7
-77 c-4 -43 -10 -81 -14 -84 -3 -3 -25 -13 -48 -22 l-43 -17 0 114 c0 131 -4
146 -35 146 -23 0 -55 23 -55 40 0 13 23 25 42 22 10 -2 26 1 35 7 10 6 19 11
19 11 1 0 -1 -11 -4 -25z m440 -72 c23 -20 24 -85 2 -118 -37 -56 -106 -17
-106 60 0 64 60 98 104 58z m223 -241 c156 -53 259 -116 370 -227 117 -115
198 -258 242 -422 23 -86 25 -341 4 -418 -45 -167 -115 -299 -221 -419 -43
-49 -170 -145 -234 -179 -161 -83 -242 -102 -436 -102 -132 0 -167 3 -235 23
-398 115 -666 465 -666 872 0 201 49 362 162 525 114 166 296 296 494 353 103
30 107 31 275 28 142 -3 162 -6 245 -34z m-1229 -312 c22 0 45 5 52 12 15 15
14 16 41 -66 l22 -69 -22 -54 c-12 -29 -25 -53 -29 -53 -4 0 -26 30 -49 68
-47 78 -86 122 -107 122 -8 0 -23 -6 -34 -12 -15 -10 -25 -10 -38 -2 -24 16
-28 53 -5 61 29 10 53 35 53 55 0 15 8 10 38 -22 33 -34 45 -40 78 -40z m2054
44 c0 -8 16 -22 35 -30 38 -16 46 -42 19 -65 -12 -10 -22 -10 -49 0 -49 17
-64 5 -131 -100 l-58 -91 -23 52 c-28 64 -28 61 -2 143 20 65 31 78 44 57 3
-5 25 -10 47 -10 34 0 46 6 72 34 31 34 46 37 46 10z m-2070 -368 l41 -54 -7
-103 -7 -102 -25 29 c-45 54 -97 109 -120 129 -23 19 -23 19 -68 -5 -34 -19
-48 -22 -62 -14 -31 20 -26 50 12 72 30 18 36 27 36 56 0 35 0 35 28 20 38
-19 76 -18 103 6 13 10 25 19 26 20 1 0 21 -24 43 -54z m2020 46 c0 -12 46
-32 73 -32 12 0 34 7 50 14 26 14 27 14 21 -9 -6 -24 18 -56 60 -80 14 -8 17
-17 12 -33 -11 -33 -49 -38 -85 -11 -41 30 -63 19 -137 -70 -33 -38 -62 -70
-66 -70 -3 -1 -9 41 -13 93 l-7 94 37 56 c34 51 55 69 55 48z m-2236 -291 c75
-39 91 -65 56 -93 -27 -22 -42 -23 -80 -3 -35 18 -65 60 -85 116 -21 59 -12
79 19 42 13 -15 54 -43 90 -62z m2501 52 c-21 -115 -126 -194 -184 -138 -25
24 -2 54 67 89 37 19 78 46 91 60 14 14 26 26 29 26 2 0 1 -17 -3 -37z m-2291
-206 c49 -44 62 -63 77 -113 10 -32 19 -64 19 -71 0 -7 -35 5 -84 28 -46 21
-93 39 -104 39 -13 0 -32 -16 -49 -40 -31 -43 -47 -49 -75 -23 -23 21 -23 36
1 57 28 25 35 64 16 92 l-15 24 46 0 c39 0 51 5 73 30 14 16 28 29 31 29 3 1
31 -23 64 -52z m2076 23 c24 -25 36 -30 76 -30 45 0 46 -1 31 -18 -24 -26 -21
-50 10 -95 l27 -39 -23 -19 c-34 -28 -48 -24 -76 21 -33 52 -53 52 -156 -1
-45 -22 -83 -39 -85 -37 -2 2 7 36 19 75 20 63 29 76 82 122 33 27 62 50 63
51 2 0 17 -13 32 -30z m-2195 -319 c89 -7 115 -20 115 -57 0 -18 -9 -29 -34
-40 -31 -15 -37 -15 -84 0 -53 18 -132 91 -132 122 0 15 2 15 27 -1 16 -11 56
-20 108 -24z m2331 10 c-18 -34 -79 -89 -113 -102 -62 -23 -133 -1 -133 42 0
29 39 46 117 52 39 3 84 13 100 21 40 22 45 20 29 -13z m-2063 -82 c45 -14 71
-28 79 -42 6 -12 36 -48 67 -81 l56 -58 -93 7 c-81 6 -95 5 -112 -10 -11 -10
-20 -24 -20 -31 0 -33 -24 -64 -49 -64 -46 0 -57 14 -43 53 22 60 16 95 -20
117 -17 10 -36 16 -41 13 -6 -3 -7 -1 -3 5 4 7 14 12 22 12 23 0 74 55 74 79
0 26 1 26 83 0z m1767 -1 c0 -24 46 -78 67 -78 20 0 15 -14 -9 -25 -12 -6 -29
-22 -37 -36 -13 -24 -13 -31 3 -68 23 -50 10 -74 -38 -69 -26 3 -33 9 -44 43
-20 62 -33 68 -136 60 l-88 -7 67 79 c56 64 78 82 124 100 73 29 91 29 91 1z
m-1575 -372 c16 -26 -14 -69 -62 -85 -52 -18 -129 -3 -187 37 -55 38 -56 51
-4 45 24 -2 78 4 123 15 82 20 111 17 130 -12z m1415 15 c44 -11 99 -18 121
-16 53 6 48 -10 -16 -50 -38 -23 -62 -30 -116 -33 -65 -4 -70 -3 -99 26 -34
34 -37 53 -14 76 20 20 26 20 124 -3z"/>
<path d="M1800 2489 c-105 -8 -164 -23 -258 -65 -224 -102 -385 -279 -465
-512 -39 -114 -49 -302 -23 -430 18 -88 69 -219 106 -274 131 -189 269 -294
480 -364 79 -26 97 -28 240 -28 147 1 160 2 250 32 140 46 239 108 345 216
178 181 255 381 242 636 -11 216 -92 397 -245 548 -185 182 -404 260 -672 241z
m255 -140 c202 -53 366 -184 461 -368 58 -113 79 -201 78 -336 -2 -196 -67
-353 -206 -496 -137 -140 -311 -211 -517 -210 -314 1 -578 195 -679 498 -22
68 -26 95 -26 213 -1 104 4 148 18 194 82 263 262 439 518 506 102 26 250 26
353 -1z"/>
<path d="M1733 2284 c-241 -52 -435 -248 -489 -492 -20 -88 -15 -247 10 -325
52 -163 180 -315 327 -385 125 -61 193 -75 324 -69 85 3 126 10 177 29 267
100 437 338 438 615 1 350 -296 646 -645 642 -44 -1 -108 -7 -142 -15z m285
-29 c272 -64 471 -314 472 -592 1 -350 -271 -623 -620 -623 -400 0 -691 380
-591 771 55 216 233 391 449 444 76 18 213 18 290 0z"/>
<path d="M1770 2209 c-30 -5 -96 -29 -146 -54 -75 -36 -103 -57 -155 -114 -35
-38 -77 -95 -93 -128 -16 -32 -33 -66 -37 -75 -5 -9 -14 -58 -21 -108 -24
-185 28 -338 161 -471 134 -134 289 -186 477 -161 200 27 384 179 455 377 30
83 32 256 5 335 -57 167 -157 284 -300 351 -117 54 -219 69 -346 48z m245 -34
c128 -34 243 -118 313 -229 62 -98 105 -264 70 -267 -25 -1 -94 -2 -120 0 -20
1 -28 6 -28 20 0 10 -7 38 -15 61 -12 35 -13 49 -3 76 10 29 8 37 -22 86 -19
29 -35 55 -38 58 -2 3 -11 -6 -21 -19 -15 -20 -21 -22 -39 -12 -30 16 -34 14
-30 -13 2 -16 -5 -30 -20 -43 l-24 -19 52 -48 c43 -41 56 -47 80 -42 26 5 30
2 40 -29 6 -19 10 -45 8 -57 -3 -22 -8 -23 -102 -26 -122 -4 -142 0 -150 33
-4 14 -18 31 -32 37 -14 7 -32 25 -41 41 l-15 30 -15 -30 c-8 -17 -25 -35 -38
-41 -13 -6 -29 -23 -37 -39 l-13 -28 -115 0 -115 0 -3 29 c-2 15 2 41 8 57 10
23 17 28 35 23 28 -7 39 -1 95 50 l43 39 -24 18 c-17 13 -23 26 -21 45 3 21 0
25 -12 20 -9 -3 -22 -9 -30 -12 -9 -3 -20 4 -28 20 l-14 26 -38 -57 c-35 -52
-37 -59 -27 -92 8 -28 7 -45 -4 -76 -8 -22 -14 -51 -15 -65 0 -25 -1 -25 -80
-25 l-80 0 0 35 c1 151 133 350 281 422 115 57 264 74 384 43z m395 -558 c0
-40 -30 -140 -60 -204 -141 -289 -527 -381 -789 -188 -113 83 -198 225 -216
363 l-7 52 536 0 536 0 0 -23z"/>
<path d="M1857 2110 c-10 -12 -29 -20 -48 -20 -24 0 -30 -3 -25 -16 6 -16 -9
-54 -26 -65 -5 -3 -1 -20 10 -38 11 -18 18 -41 15 -51 -4 -16 1 -19 27 -18 20
1 38 -5 45 -15 16 -22 21 -21 52 3 15 11 34 18 43 15 14 -4 19 3 24 34 3 22
13 41 22 45 14 5 13 9 -5 32 -12 15 -21 37 -21 50 0 19 -5 24 -27 24 -15 0
-36 9 -48 20 -21 20 -21 20 -38 0z"/>
<path d="M591 1000 c-8 -4 -46 -11 -85 -15 -51 -5 -95 -18 -156 -45 -88 -40
-135 -53 -230 -64 -77 -9 -83 -15 -83 -79 0 -42 6 -63 22 -83 11 -15 21 -40
21 -56 0 -32 27 -98 40 -98 4 0 11 -15 14 -34 10 -52 31 -64 61 -36 20 19 27
21 40 10 12 -10 16 -9 21 3 12 33 64 30 64 -4 0 -10 -15 -36 -34 -56 -52 -58
-76 -113 -80 -179 l-3 -59 -81 -3 -82 -3 0 -29 0 -30 1841 0 1840 0 -3 27 c-3
28 -4 28 -85 31 l-83 3 0 49 c0 63 -24 125 -65 170 -49 53 -58 75 -39 94 21
21 31 20 44 -5 9 -16 14 -18 26 -8 12 10 20 7 40 -12 l26 -24 19 24 c10 13 19
30 19 38 0 8 11 28 24 44 13 15 27 48 31 71 4 24 16 62 27 86 21 44 21 113 1
133 -5 5 -47 14 -94 20 -95 11 -144 26 -209 63 -31 17 -79 30 -149 40 -58 9
-106 16 -108 16 -2 0 -3 -13 -3 -28 0 -24 -6 -29 -45 -41 -51 -15 -55 -28 -24
-70 24 -33 20 -78 -11 -106 -15 -13 -17 -21 -8 -35 8 -13 7 -25 -6 -50 -9 -18
-16 -44 -16 -57 0 -13 -11 -40 -24 -61 -13 -20 -32 -58 -41 -84 l-18 -48
-1069 0 -1070 0 -6 22 c-3 12 -22 55 -43 96 -21 41 -35 81 -32 89 3 7 -2 22
-12 33 -12 14 -16 29 -12 52 3 24 -1 40 -14 57 -25 31 -24 69 2 97 29 31 19
49 -35 65 -30 9 -45 18 -42 26 9 23 -8 53 -23 43z m-31 -65 c0 -8 5 -15 11
-15 22 0 109 -45 106 -55 -4 -12 -42 -23 -84 -24 -21 -1 -33 -6 -33 -15 0 -20
-26 -27 -57 -15 -20 7 -34 7 -50 -2 -20 -11 -30 -9 -69 9 -48 24 -97 28 -139
12 -24 -9 -25 -13 -14 -26 10 -13 25 -15 65 -10 36 4 63 1 90 -10 23 -10 50
-13 70 -10 18 4 35 2 39 -4 11 -17 61 -11 89 11 41 32 62 22 56 -26 -6 -60 -6
-97 3 -127 11 -41 -7 -35 -59 18 -24 26 -47 45 -49 42 -2 -2 3 -25 13 -50 15
-43 15 -49 0 -81 -9 -19 -29 -39 -46 -46 -27 -11 -38 -9 -100 18 -61 27 -82
31 -158 31 -76 0 -91 3 -111 22 -15 14 -23 33 -23 55 0 32 2 33 38 33 21 0 43
-5 49 -11 16 -16 43 -4 43 19 0 33 -19 41 -85 35 -59 -5 -64 -4 -80 20 -22 34
-17 81 10 86 11 2 24 9 30 16 5 7 37 16 71 19 61 7 154 36 178 55 18 15 115
40 159 40 26 1 37 -3 37 -14z m2840 -29 c44 -21 106 -40 150 -47 41 -7 82 -18
91 -25 8 -8 23 -14 32 -14 13 0 17 -9 17 -40 0 -54 -27 -71 -106 -68 -58 3
-59 2 -62 -24 -4 -31 8 -35 54 -17 16 5 39 7 52 4 21 -5 24 -10 18 -38 -12
-60 -35 -72 -140 -73 -82 -1 -101 -5 -141 -28 -92 -51 -165 -24 -165 61 0 25
5 53 11 65 19 35 -1 34 -34 -3 -62 -69 -62 -69 -62 44 0 113 7 124 56 83 35
-30 60 -33 93 -10 16 10 26 12 31 5 9 -16 37 -13 81 8 26 13 44 16 56 10 22
-12 69 -11 88 1 13 9 12 12 -4 25 -28 21 -96 19 -151 -5 -34 -15 -51 -17 -60
-10 -8 6 -30 8 -54 4 -33 -5 -44 -3 -55 11 -7 11 -30 19 -56 21 -81 8 -79 31
6 64 27 10 48 24 46 31 -6 25 128 3 208 -35z m-2287 -573 c-5 -60 -3 -71 17
-95 38 -49 96 -34 173 45 69 70 119 107 147 107 17 0 21 -4 15 -17 -3 -10 -9
-38 -12 -63 -4 -36 -1 -50 17 -72 43 -55 118 -25 204 81 31 39 61 71 66 71 4
0 11 -15 15 -32 16 -74 82 -148 133 -148 35 0 90 59 113 120 12 33 24 60 28
60 3 0 17 -15 31 -32 105 -137 180 -178 231 -127 19 19 21 30 17 90 -5 59 -3
69 11 69 27 0 72 -33 141 -103 74 -74 121 -92 164 -64 26 18 42 79 31 119 -18
63 -18 60 7 53 30 -10 65 -41 94 -87 13 -20 40 -53 59 -72 l36 -36 -51 0 c-31
0 -50 4 -50 11 0 7 -8 17 -17 24 -19 14 -53 0 -53 -22 0 -10 -32 -13 -131 -13
-71 0 -128 4 -125 8 3 5 -5 17 -16 27 -15 12 -23 14 -26 7 -2 -7 -10 -12 -18
-12 -8 0 -11 -6 -8 -15 5 -13 -14 -15 -140 -15 -111 0 -146 3 -146 13 0 22
-34 36 -54 21 -10 -7 -15 -17 -11 -23 4 -8 -33 -11 -120 -11 -105 0 -126 2
-122 14 6 16 -23 27 -52 19 -12 -3 -17 -11 -14 -19 4 -12 -20 -14 -141 -14
-118 0 -146 3 -146 14 0 8 -7 17 -16 20 -23 9 -54 -2 -54 -20 0 -11 -24 -14
-131 -14 -109 0 -130 2 -126 14 7 18 -17 28 -48 20 -15 -4 -22 -11 -18 -20 4
-11 -6 -14 -48 -14 l-53 0 36 38 c19 20 50 59 68 85 25 38 66 70 97 77 1 0 -1
-30 -4 -67z"/>
<path d="M1685 559 c-36 -23 -68 -24 -85 -4 -7 8 -23 15 -35 15 -12 0 -28 -7
-35 -15 -16 -20 -64 -19 -95 1 -23 15 -26 15 -52 -5 -27 -22 -74 -22 -97 0
-15 14 -41 11 -75 -8 -29 -17 -32 -17 -65 1 -33 18 -37 18 -60 2 -30 -19 -69
-21 -96 -4 -14 9 -25 10 -36 3 -18 -12 -20 -31 -4 -29 6 1 432 2 948 3 840 1
935 3 917 17 -12 9 -28 12 -40 8 -51 -16 -86 -16 -105 1 -19 17 -22 17 -61 -1
-39 -17 -43 -17 -71 -1 -33 19 -64 22 -73 7 -10 -16 -73 -12 -100 6 -22 14
-26 14 -47 0 -29 -21 -63 -20 -99 1 -28 17 -31 17 -60 0 -39 -22 -54 -22 -95
4 l-34 21 -29 -21 c-36 -26 -59 -26 -91 -1 -31 25 -36 25 -67 0 -14 -11 -35
-20 -45 -20 -11 0 -31 9 -45 20 -30 24 -30 24 -68 -1z"/>
<path d="M20 45 l0 -35 1861 0 1860 0 -3 32 -3 33 -1857 3 -1858 2 0 -35z"/>
</g>
</svg>
